<svg width="24" height="24" viewBox="0 0 24 24" fill="none" xmlns="http://www.w3.org/2000/svg">
<path fill-rule="evenodd" clip-rule="evenodd" d="M9.69436 3H13.8064C15.6444 3 17.1004 3 18.2394 3.153C19.4114 3.311 20.3604 3.643 21.1094 4.391C21.8574 5.14 22.1894 6.089 22.3474 7.261C22.4374 7.934 22.4744 8.717 22.4894 9.624C22.5018 9.70007 22.5031 9.77754 22.4934 9.854C22.4994 10.4193 22.5017 11.0327 22.5004 11.694V11.806C22.5004 13.644 22.5004 15.1 22.3474 16.239C22.1894 17.411 21.8574 18.36 21.1094 19.109C20.3604 19.857 19.4114 20.189 18.2394 20.347C17.0994 20.5 15.6444 20.5 13.8064 20.5H9.69436C7.85636 20.5 6.40036 20.5 5.26136 20.347C4.08936 20.189 3.14036 19.857 2.39136 19.109C1.64336 18.36 1.31136 17.411 1.15336 16.239C1.00036 15.099 1.00036 13.644 1.00036 11.806V11.694C0.99903 11.0327 1.00136 10.4193 1.00736 9.854C0.997279 9.77759 0.99829 9.70012 1.01036 9.624C1.02636 8.717 1.06336 7.934 1.15336 7.261C1.31136 6.089 1.64336 5.14 2.39136 4.391C3.14036 3.643 4.08936 3.311 5.26136 3.153C6.40136 3 7.85636 3 9.69436 3ZM2.50236 10.5C2.50103 10.888 2.50036 11.3047 2.50036 11.75C2.50036 13.657 2.50236 15.012 2.64036 16.04C2.77536 17.045 3.02936 17.625 3.45236 18.048C3.87536 18.471 4.45536 18.725 5.46136 18.86C6.48936 18.998 7.84336 19 9.75036 19H13.7504C15.6574 19 17.0124 18.998 18.0404 18.86C19.0454 18.725 19.6254 18.471 20.0484 18.048C20.4714 17.625 20.7254 17.045 20.8604 16.039C20.9984 15.011 21.0004 13.657 21.0004 11.75C21.0004 11.3047 20.9997 10.888 20.9984 10.5H2.50236ZM20.9744 9H2.52636C2.54636 8.413 2.58036 7.906 2.64036 7.46C2.77536 6.455 3.02936 5.875 3.45236 5.452C3.87536 5.029 4.45536 4.775 5.46136 4.64C6.48936 4.502 7.84336 4.5 9.75036 4.5H13.7504C15.6574 4.5 17.0124 4.502 18.0404 4.64C19.0454 4.775 19.6254 5.029 20.0484 5.452C20.4714 5.875 20.7254 6.455 20.8604 7.461C20.9204 7.906 20.9544 8.413 20.9744 9ZM5.00036 15.75C5.00036 15.5511 5.07938 15.3603 5.22003 15.2197C5.36069 15.079 5.55145 15 5.75036 15H9.75036C9.94928 15 10.14 15.079 10.2807 15.2197C10.4213 15.3603 10.5004 15.5511 10.5004 15.75C10.5004 15.9489 10.4213 16.1397 10.2807 16.2803C10.14 16.421 9.94928 16.5 9.75036 16.5H5.75036C5.55145 16.5 5.36069 16.421 5.22003 16.2803C5.07938 16.1397 5.00036 15.9489 5.00036 15.75ZM11.5004 15.75C11.5004 15.5511 11.5794 15.3603 11.72 15.2197C11.8607 15.079 12.0515 15 12.2504 15H13.7504C13.9493 15 14.14 15.079 14.2807 15.2197C14.4213 15.3603 14.5004 15.5511 14.5004 15.75C14.5004 15.9489 14.4213 16.1397 14.2807 16.2803C14.14 16.421 13.9493 16.5 13.7504 16.5H12.2504C12.0515 16.5 11.8607 16.421 11.72 16.2803C11.5794 16.1397 11.5004 15.9489 11.5004 15.75Z" fill="#479CFF"/>
</svg>
